# xmcd
#
# Track frame offsets: 
#        225
#        17979
#        36788
#        50905
#        63948
#        73931
#        90841
#        98822
#        122858
#        142015
#        155385
#        167011
#        181851
#        201110
#        213996
#        227087
#
# Disc length: 3228 seconds
#
# Revision: 6
# Processed by: cddbd v1.5.2PL0 Copyright (c) Steve Scherf et al.
# Submitted via: ExactAudioCopy v0.99pb5
#
DISCID=e10c9910
DTITLE=MICHAL TUCNÝ - MASER SERIE
DYEAR=2000
DGENRE=Country
TTITLE0=Mám Páru (Elvira) (1983)
TTITLE1=Bájecná Zenská (Hearted Woman) (1982)
TTITLE2=Sundej Z Hodin Závazí (Help Me Make It Through The Night)
TTITLE3=Snídane V Tráve (Sea Of Heartbreak) (1980)
TTITLE4=Rovnou, Tady Rovnou (Roll On Buddy)
TTITLE5=Az Príjde Ten Den (Together Again)
TTITLE6=Lodní Zvon Zvoní (I Saw The Light)
TTITLE7=Kosmickej Vandr (1997)
TTITLE8=Vsichni Jsou Uz V Mexiku (They All Went To Mexico) (1985)
TTITLE9=Je To Zvlástni
TTITLE10=Vánocní (Tree Too Weak To Stand)
TTITLE11=Dávej Vinu Dálkám
TTITLE12=Muj Kalendár
TTITLE13=Já Svetem Táh Jen Tak S Celtou
TTITLE14=Prodavac (Auktioneer)
TTITLE15=Pane Muj (Why Me) (2000)
EXTD=YEAR: 2000
EXTT0=
EXTT1=
EXTT2=
EXTT3=
EXTT4=
EXTT5=
EXTT6=
EXTT7=
EXTT8=
EXTT9=
EXTT10=
EXTT11=
EXTT12=
EXTT13=
EXTT14=
EXTT15=
PLAYORDER=
